<?xml version="1.0" standalone="no"?>
<!DOCTYPE svg PUBLIC "-//W3C//DTD SVG 20010904//EN"
 "http://www.w3.org/TR/2001/REC-SVG-20010904/DTD/svg10.dtd">
<svg version="1.0" xmlns="http://www.w3.org/2000/svg"
 width="225.000000pt" height="225.000000pt" viewBox="0 0 225.000000 225.000000"
 preserveAspectRatio="xMidYMid meet">

<g transform="translate(0.000000,225.000000) scale(0.100000,-0.100000)"
fill="#000000" stroke="none">
<path d="M132 2239 c-46 -14 -109 -80 -122 -128 -7 -27 -10 -342 -8 -1008 l3
-968 24 -38 c13 -21 42 -50 64 -65 l41 -27 991 0 991 0 41 27 c22 15 51 44 64
65 l24 38 0 991 0 990 -27 41 c-15 22 -44 51 -65 64 l-38 24 -975 2 c-597 1
-988 -2 -1008 -8z m2009 -98 l39 -39 0 -977 0 -977 -39 -39 -39 -39 -977 0
-977 0 -39 39 -39 39 0 977 0 977 39 39 39 39 977 0 977 0 39 -39z"/>
<path d="M622 1808 c-8 -8 -12 -47 -12 -110 l0 -97 -102 -3 c-102 -3 -103 -3
-103 -28 0 -25 1 -25 103 -28 l102 -3 0 -98 c0 -78 3 -101 16 -112 11 -9 20
-10 32 -2 14 8 18 30 20 111 l3 101 102 3 c101 3 102 3 102 28 0 25 -1 25
-102 28 l-103 3 0 97 c0 95 -8 122 -35 122 -6 0 -16 -5 -23 -12z"/>
<path d="M1364 1585 c-4 -8 -4 -22 0 -30 5 -13 38 -15 243 -13 l238 3 0 25 0
25 -238 3 c-205 2 -238 0 -243 -13z"/>
<path d="M467 793 c-17 -17 -2 -44 63 -108 l70 -69 -71 -72 c-50 -50 -70 -77
-66 -88 15 -38 38 -29 111 43 l72 71 69 -70 c71 -71 89 -79 109 -48 9 15 -1
29 -62 91 l-72 73 70 69 c48 48 70 76 68 90 -6 41 -41 28 -108 -40 -35 -36
-69 -65 -75 -65 -6 0 -40 29 -75 65 -60 60 -86 75 -103 58z"/>
<path d="M1367 754 c-14 -14 -7 -43 12 -54 12 -6 104 -10 228 -10 221 0 249 5
241 46 -3 18 -15 19 -239 22 -129 1 -238 -1 -242 -4z"/>
<path d="M1367 534 c-13 -13 -7 -52 9 -58 24 -9 447 -7 462 3 8 4 12 19 10 32
l-3 24 -236 3 c-129 1 -238 -1 -242 -4z"/>
</g>
</svg>
